<?xml version="1.0" encoding="UTF-8"?>
<!DOCTYPE svg PUBLIC "-//W3C//DTD SVG 1.1//EN" "http://www.w3.org/Graphics/SVG/1.1/DTD/svg11.dtd">
<svg xmlns="http://www.w3.org/2000/svg" version="1.1" width="152px" height="112px" style="shape-rendering:geometricPrecision; text-rendering:geometricPrecision; image-rendering:optimizeQuality; fill-rule:evenodd; clip-rule:evenodd" xmlns:xlink="http://www.w3.org/1999/xlink">
<g><path style="opacity:0.767" fill="#fefffe" d="M 34.5,2.5 C 49.7377,1.93444 64.2377,4.93444 78,11.5C 93.7258,3.68227 110.226,1.18227 127.5,4C 139.174,8.50697 143.674,17.007 141,29.5C 139.333,37.3344 136.166,44.5011 131.5,51C 141.343,61.187 147.009,73.3537 148.5,87.5C 147.562,99.2734 141.228,106.107 129.5,108C 119.296,109.07 109.296,108.07 99.5,105C 92.1748,102.558 85.0081,99.7251 78,96.5C 61.9564,105.442 44.7898,109.275 26.5,108C 11.2987,104.432 5.46535,94.932 9,79.5C 12.0638,68.7917 17.2304,59.2917 24.5,51C 17.0374,40.6495 14.2041,29.1495 16,16.5C 19.3583,8.0757 25.525,3.40904 34.5,2.5 Z M 45.5,17.5 C 51.3343,17.0499 57.001,17.7166 62.5,19.5C 54.5518,24.7809 46.8851,30.4476 39.5,36.5C 34.6209,28.1324 36.6209,21.799 45.5,17.5 Z M 97.5,17.5 C 103.732,16.9386 109.732,17.772 115.5,20C 119.997,24.97 120.664,30.47 117.5,36.5C 109.92,30.0867 101.92,24.2534 93.5,19C 95.0581,18.79 96.3915,18.29 97.5,17.5 Z M 76.5,25.5 C 82.6436,27.2384 88.3102,30.0718 93.5,34C 99.5867,38.7093 105.253,43.876 110.5,49.5C 101.765,60.8565 91.098,69.8565 78.5,76.5C 65.6128,70.4549 54.9461,61.6216 46.5,50C 54.8866,39.7726 64.8866,31.6059 76.5,25.5 Z M 35.5,47.5 C 36.9953,47.4148 37.9953,48.0815 38.5,49.5C 37.3333,51.1667 36.1667,52.8333 35,54.5C 33.9783,53.646 33.1449,52.646 32.5,51.5C 33.5244,50.1482 34.5244,48.8149 35.5,47.5 Z M 118.5,47.5 C 122.869,48.2385 124.036,50.5718 122,54.5C 119.762,52.6909 118.595,50.3576 118.5,47.5 Z M 35.5,64.5 C 42.5557,71.8904 50.2224,78.5571 58.5,84.5C 51.4328,87.2723 44.4328,87.1057 37.5,84C 35.9512,82.786 34.7845,81.286 34,79.5C 33.1818,74.349 33.6818,69.349 35.5,64.5 Z M 119.5,65.5 C 120.75,65.5774 121.583,66.244 122,67.5C 125.384,79.7812 120.717,86.1146 108,86.5C 104.43,86.4565 100.93,85.9565 97.5,85C 105.325,79.0061 112.658,72.5061 119.5,65.5 Z M 77.5,83.5 C 85.333,86.2137 84.9996,88.0471 76.5,89C 75.1667,88 73.8333,87 72.5,86C 74.4913,85.6264 76.158,84.793 77.5,83.5 Z"/></g>
<g><path style="opacity:0.8" fill="#fefffe" d="M 73.5,31.5 C 95.3274,31.8367 102.161,42.17 94,62.5C 86.055,70.1808 77.2217,71.3475 67.5,66C 57.2147,56.0298 56.8814,45.6965 66.5,35C 68.9252,33.7874 71.2585,32.6207 73.5,31.5 Z"/></g>
</svg>
