<svg version="1.1" id="Layer_1" xmlns="http://www.w3.org/2000/svg" xmlns:xlink="http://www.w3.org/1999/xlink" x="0px" y="0px"
	 width="100%" viewBox="0 0 152 112" enable-background="new 0 0 152 112" xml:space="preserve">
<path fill="#0000" opacity="1.000000" stroke="none" 
	d="
M90.000000,113.000000 
	C60.000004,113.000000 30.500008,113.000000 1.000008,113.000000 
	C1.000005,75.666672 1.000005,38.333351 1.000003,1.000012 
	C50.499985,1.000000 100.000046,1.033614 149.499756,0.916830 
	C152.482590,0.909792 153.095566,1.516318 153.084351,4.500274 
	C152.952896,39.499779 152.952911,74.500122 153.084320,109.499634 
	C153.095520,112.483299 152.486237,113.112350 149.499313,113.086807 
	C129.834076,112.918602 110.166687,113.000000 90.000000,113.000000 
z"/>
<path fill="#ffff" opacity="1.000000" stroke="none" 
	d="
M10.689890,83.349388 
	C11.120484,82.124794 11.397506,81.327225 11.849932,80.259682 
	C16.853886,74.522850 23.078453,76.816772 29.321495,77.085335 
	C31.682402,77.532364 32.625744,78.509865 33.294460,80.568642 
	C33.906780,82.453804 35.047779,85.062241 38.578590,83.821442 
	C39.227577,83.689651 39.496002,83.689758 40.129997,83.836426 
	C41.165134,84.337151 41.850357,84.658600 42.879669,85.091980 
	C47.944542,86.854088 52.674541,87.138443 57.568672,84.955551 
	C58.853230,83.367462 58.403915,81.768990 58.563931,79.873428 
	C59.838078,76.632820 62.406929,76.644257 64.900848,76.605339 
	C67.408173,76.566216 69.831787,77.503738 72.818825,77.343315 
	C75.104904,77.348778 76.795097,77.957420 78.890793,78.649963 
	C79.499802,78.941879 79.714111,79.101532 80.133423,79.589653 
	C80.714134,83.013344 78.000221,82.895302 76.331978,84.046257 
	C75.024208,84.948517 72.187782,85.043541 72.754196,87.277649 
	C73.258972,89.268639 75.508919,88.318146 77.081940,88.238533 
	C77.742996,88.205086 78.400696,88.329773 79.383972,88.339966 
	C80.836288,88.123878 82.157890,88.481277 82.989410,86.958519 
	C83.076035,85.225197 82.246857,83.875595 82.540672,82.018379 
	C86.054176,77.045967 90.782227,78.629097 95.657364,79.335022 
	C97.160217,87.520042 103.258469,85.467400 108.259750,85.552567 
	C110.389771,85.588837 112.533188,85.632538 114.994370,85.175163 
	C119.999870,83.981552 122.400131,80.815117 123.382751,76.312851 
	C123.712685,74.801102 123.533257,72.916328 126.115936,72.414551 
	C131.681870,69.850586 136.989578,70.128983 142.770416,71.653465 
	C150.761459,82.970627 150.085953,97.401283 139.885056,103.883148 
	C132.987701,108.265877 125.328911,109.118141 117.403008,108.196075 
	C105.262093,106.783646 93.869904,103.001686 83.028603,97.369431 
	C80.154182,95.876106 77.324615,96.384621 74.121017,97.878555 
	C61.214394,103.897346 47.895794,108.853432 33.316574,108.400688 
	C26.733501,108.196266 20.383163,106.848770 15.242769,101.380829 
	C14.975002,100.972092 14.963979,101.033455 14.995011,101.030525 
	C13.549114,100.278557 12.921210,98.898903 12.186184,97.191734 
	C11.997288,96.924965 11.982237,97.020523 12.030018,97.028053 
	C9.569165,92.847771 10.756217,88.230301 10.689890,83.349388 
z"/>
<path fill="#ffff" opacity="1.000000" stroke="none" 
	d="
M64.225578,8.706779 
	C64.801323,8.833610 64.995819,8.846889 65.336288,8.867829 
	C66.104271,8.779989 66.550377,9.016893 67.220604,9.707835 
	C67.812035,9.842624 68.003540,9.854376 68.338890,9.870279 
	C69.105293,9.783237 69.552399,10.021392 70.222847,10.717726 
	C70.807251,10.860490 70.992203,10.880383 71.314789,10.924891 
	C71.800537,10.824989 72.148010,10.706369 72.921524,10.936757 
	C73.347572,11.285765 73.404945,11.246196 73.370682,11.239845 
	C74.545914,11.563021 75.398148,12.631437 76.854004,13.172720 
	C81.426544,14.281063 84.676453,11.236952 88.488968,10.091718 
	C95.252853,8.059920 102.015388,6.043063 109.413940,4.973925 
	C113.634773,4.054685 117.517647,4.661113 121.802872,4.788396 
	C123.453720,5.281540 124.681374,5.536677 126.219040,5.860767 
	C127.414879,6.513643 128.436905,6.491274 129.716812,6.831230 
	C130.000137,7.080276 129.995636,7.017479 129.965973,7.028029 
	C130.261383,7.306070 130.594391,7.563273 131.230591,7.921930 
	C131.525787,8.033713 131.518036,7.970510 131.488129,7.981423 
	C131.874435,8.101144 132.245010,8.298162 132.803467,8.794569 
	C133.030518,9.018220 133.036560,8.958842 133.007660,8.966293 
	C141.361954,15.018555 143.810150,24.699017 138.896057,34.231735 
	C132.904312,34.306587 127.447472,35.799007 121.462837,35.298500 
	C118.957405,34.400589 118.783821,32.589218 118.567490,30.378044 
	C118.433701,28.717861 118.278160,27.472923 117.598450,25.982130 
	C116.978409,24.809015 116.416176,24.033371 115.544510,23.021645 
	C115.123627,19.042648 113.303040,17.575964 109.521851,17.612309 
	C104.706055,17.658598 99.890999,17.183159 95.166588,18.534327 
	C94.169846,18.819389 92.624855,18.674299 94.078461,20.682781 
	C97.258217,23.341522 100.727722,24.980997 103.699814,27.337799 
	C105.350204,28.646521 107.321884,29.754776 107.130112,32.678780 
	C104.859543,35.365627 101.760765,33.869904 98.959000,35.154591 
	C95.070862,35.847221 92.946091,33.115376 90.267860,31.715082 
	C88.385582,30.730951 86.739349,29.321198 84.400818,28.290527 
	C79.889145,24.471756 75.884819,24.171263 71.679016,28.204473 
	C70.811600,29.036297 69.261192,30.076956 67.223801,29.138105 
	C64.595917,27.043264 61.184132,29.651781 58.953339,26.531479 
	C57.048115,22.608765 60.176929,22.107136 62.171486,20.519611 
	C62.685959,18.499458 61.150780,18.062504 60.267368,17.989492 
	C54.194374,17.487558 48.038528,16.311577 42.240391,19.460300 
	C40.063122,20.642687 38.620831,22.419254 37.660500,24.631880 
	C37.066059,26.001482 37.015842,27.697180 34.917477,28.448917 
	C29.221422,28.424360 23.836023,29.551752 18.329773,27.297356 
	C15.812603,16.405560 21.196735,6.945000 36.419384,4.975482 
	C39.883873,4.077309 43.026409,4.663628 46.579418,4.713564 
	C50.936188,5.546522 54.855854,6.204349 59.158573,6.901484 
	C60.818867,7.900375 62.821915,6.968454 64.225578,8.706779 
z"/>
<path fill="#ffff" opacity="1.000000" stroke="none" 
	d="
M31.193794,78.943687 
	C24.827923,79.100006 18.797464,78.577591 12.439707,79.931984 
	C12.727200,70.988380 18.297819,64.377159 23.138056,57.415646 
	C24.162498,55.942226 25.343477,54.577644 26.768410,53.009136 
	C27.211769,52.656113 27.339058,52.456871 27.727524,52.020226 
	C28.434298,51.634968 28.890863,51.546246 29.707754,51.525269 
	C31.888372,51.136227 32.592010,53.326096 34.563885,53.377983 
	C35.102524,53.402008 35.319122,53.406677 35.852600,53.313389 
	C37.385883,52.622509 37.842434,50.897305 39.868294,51.041595 
	C41.447151,51.386208 42.685287,51.476143 44.304604,51.491978 
	C47.346844,53.131107 50.071827,54.697639 51.858849,57.860352 
	C53.264805,59.448528 54.326870,60.996964 56.859200,60.509758 
	C57.675812,60.769791 58.077988,61.049648 59.003925,61.845207 
	C59.782856,62.418457 59.982792,62.553417 60.482758,62.889771 
	C61.365265,63.514263 61.916775,63.977394 62.776382,64.626160 
	C64.139481,65.324722 64.420898,66.864853 65.979660,67.245560 
	C67.074196,67.393852 67.047653,69.125099 68.427292,68.859985 
	C69.132553,69.347466 69.471886,69.680244 70.058655,70.251236 
	C70.578583,70.528618 70.786812,70.638649 71.299408,70.929047 
	C71.988579,71.390572 72.348396,71.700989 72.932732,72.301346 
	C73.345360,72.743172 73.512970,72.919075 73.847336,73.419800 
	C73.774437,75.324837 74.657082,76.806625 74.252167,78.676224 
	C69.498726,79.819496 64.251465,77.015823 60.139446,81.786011 
	C57.916256,83.496941 56.643288,81.937920 55.232357,80.879036 
	C52.280083,78.663383 49.366646,76.365997 45.164280,75.786362 
	C44.630516,75.413773 44.418182,75.261063 43.889145,74.863434 
	C43.239655,70.916649 41.155876,68.301262 38.386639,66.049751 
	C36.078632,64.173241 35.333523,65.334213 34.438953,67.558907 
	C32.964699,71.225235 33.798191,75.438187 31.193794,78.943687 
z"/>
<path fill="#ffff" opacity="1.000000" stroke="none" 
	d="
M137.850815,33.290066 
	C141.439056,24.201078 140.484879,16.242929 133.102600,9.291993 
	C140.277893,11.616112 144.328049,20.296650 142.601166,29.561996 
	C141.241852,36.855255 138.048752,43.442932 134.461548,49.809750 
	C133.165253,52.110500 133.297699,53.469151 134.881836,55.516712 
	C141.510498,64.084511 147.209305,73.074875 149.126511,84.122856 
	C151.271378,96.482735 145.211441,106.266655 132.936127,108.941414 
	C120.062813,111.746468 107.895111,108.478554 95.879387,104.318314 
	C93.222252,103.398323 90.655365,102.188629 88.111214,100.977318 
	C82.633469,98.369255 77.750252,97.865593 71.686882,100.877235 
	C60.525787,106.420914 48.461361,110.162666 35.793320,109.906830 
	C28.103640,109.751534 19.982885,109.352341 15.005833,101.323105 
	C27.455957,109.900894 40.868786,107.289841 54.167671,103.795807 
	C61.343357,101.910530 68.312592,99.157890 74.829956,95.520218 
	C77.286957,94.148849 79.283356,94.243385 81.744003,95.507919 
	C92.543922,101.058075 103.813599,105.253189 115.996223,106.564583 
	C123.022171,107.320892 129.917542,107.298637 136.425049,103.873108 
	C144.393143,99.678741 148.006470,92.384407 146.350555,83.578804 
	C145.703308,80.137115 144.822159,76.780258 143.082031,73.316376 
	C136.341324,68.292717 133.491455,60.618992 128.341400,54.773369 
	C127.185127,53.460922 127.103806,51.292492 127.819633,49.568268 
	C130.240433,43.737270 132.747742,37.929741 137.850815,33.290066 
z"/>
<path fill="#ffff" opacity="1.000000" stroke="none" 
	d="
M45.142998,52.701027 
	C43.463036,53.004269 42.098812,52.992554 40.325169,52.976013 
	C39.097172,52.483395 38.157841,52.092869 38.227016,50.526749 
	C37.153584,47.977448 36.158047,47.233040 34.073357,49.506180 
	C33.032513,50.641117 32.315247,52.325600 30.269444,52.924805 
	C29.475378,52.996643 29.027325,52.987267 28.243244,52.970230 
	C26.933939,51.874321 26.773901,50.239216 25.265530,49.137978 
	C25.044758,48.913639 25.080832,48.977699 25.112858,48.959656 
	C23.350971,44.837032 20.894547,41.041069 19.378784,36.418076 
	C18.860893,33.313137 17.317860,30.749577 17.933552,27.406908 
	C23.351818,25.710428 28.689466,25.584663 34.435272,26.912394 
	C37.802650,27.788008 36.274403,30.305050 36.543358,31.972897 
	C36.858768,33.928825 36.228951,36.090946 39.364899,36.604851 
	C44.402866,32.969696 48.711617,28.834141 53.814316,25.764137 
	C55.513126,24.742056 57.088760,22.646307 59.749161,24.588762 
	C62.655247,25.619694 65.344093,26.362831 68.445770,27.260397 
	C68.910286,32.046772 64.402863,32.946690 61.862587,34.846745 
	C56.455078,38.891407 51.724140,43.579327 46.838970,48.136879 
	C45.724823,49.176308 45.069675,50.694359 45.142998,52.701027 
z"/>
<path fill="#ffff" opacity="1.000000" stroke="none" 
	d="
M19.258572,36.441956 
	C21.333975,40.121567 23.382359,44.170479 25.287815,48.580505 
	C22.378933,45.285637 20.145119,41.370247 19.258572,36.441956 
z"/>
<path fill="#ffff" opacity="1.000000" stroke="none" 
	d="
M10.620588,83.270531 
	C11.326077,87.334518 10.441204,91.867424 12.046160,96.609421 
	C8.515084,92.939285 10.340387,88.168297 10.620588,83.270531 
z"/>
<path fill="#ffff" opacity="1.000000" stroke="none" 
	d="
M121.889252,4.758797 
	C118.399338,5.006080 114.572617,4.985758 110.269806,4.926266 
	C113.662605,3.249832 117.617714,4.173046 121.889252,4.758797 
z"/>
<path fill="#ffff" opacity="1.000000" stroke="none" 
	d="
M46.673752,4.688668 
	C43.921345,4.912563 40.826172,4.936430 37.262314,4.924287 
	C39.911736,3.298965 43.135872,4.240092 46.673752,4.688668 
z"/>
<path fill="#ffff" opacity="1.000000" stroke="none" 
	d="
M12.048201,97.273727 
	C13.663484,97.496284 13.897130,99.227417 14.920353,100.716232 
	C13.070570,100.734787 12.428674,99.312874 12.048201,97.273727 
z"/>
<path fill="#ffff" opacity="1.000000" stroke="none" 
	d="
M25.179245,49.201851 
	C27.302919,48.915829 27.237719,50.901630 27.905685,52.612682 
	C27.907217,52.962578 27.488943,52.958733 27.286713,52.907043 
	C26.494232,51.733593 25.903980,50.611828 25.179245,49.201851 
z"/>
<path fill="#ffff" opacity="1.000000" stroke="none" 
	d="
M64.379143,8.474926 
	C63.102016,8.378322 61.597309,7.934947 59.817112,7.216182 
	C61.106518,7.226912 62.904881,6.606572 64.379143,8.474926 
z"/>
<path fill="#ffff" opacity="1.000000" stroke="none" 
	d="
M76.824905,13.202068 
	C75.830681,13.166102 74.520065,13.038538 73.505157,11.577431 
	C74.426476,11.789482 75.516541,12.345471 76.824905,13.202068 
z"/>
<path fill="#ffff" opacity="1.000000" stroke="none" 
	d="
M129.708878,6.848750 
	C129.024155,6.877105 128.048172,6.673936 126.800613,6.200244 
	C127.491905,6.158889 128.454758,6.388057 129.708878,6.848750 
z"/>
<path fill="#ffff" opacity="1.000000" stroke="none" 
	d="
M70.484833,10.605258 
	C70.113136,10.697037 69.604599,10.547585 68.789398,10.136306 
	C69.275215,9.387138 69.854286,9.712943 70.484833,10.605258 
z"/>
<path fill="#ffff" opacity="1.000000" stroke="none" 
	d="
M67.479889,9.592695 
	C67.112114,9.685654 66.603683,9.540483 65.788818,9.134718 
	C66.270218,8.381507 66.846855,8.705225 67.479889,9.592695 
z"/>
<path fill="#ffff" opacity="1.000000" stroke="none" 
	d="
M73.165359,11.040873 
	C73.019089,11.299893 72.690613,11.314023 71.907593,11.135880 
	C71.923302,10.481949 72.414497,10.237553 73.165359,11.040873 
z"/>
<path fill="#ffff" opacity="1.000000" stroke="none" 
	d="
M131.305023,7.803620 
	C131.113327,7.889114 130.700882,7.744514 130.112366,7.319244 
	C130.318970,7.216893 130.701630,7.395209 131.305023,7.803620 
z"/>
<path fill="#ffff" opacity="1.000000" stroke="none" 
	d="
M132.836090,8.759207 
	C132.638382,8.848536 132.246262,8.678853 131.656158,8.250751 
	C131.852692,8.161621 132.247192,8.330907 132.836090,8.759207 
z"/>
<path fill="#ffff" opacity="1.000000" stroke="none" 
	d="
M137.742584,32.953377 
	C137.164551,38.973827 133.562393,43.678478 130.533218,48.564968 
	C128.950821,51.117592 129.273972,52.287922 131.152313,54.397461 
	C135.916534,59.748104 139.949524,65.668533 142.833435,72.664871 
	C137.532120,72.913750 132.195923,72.920685 126.502388,73.992836 
	C124.920784,74.177635 124.017334,73.684090 122.968941,72.593353 
	C122.204056,71.698158 121.963310,70.967995 121.658798,69.872498 
	C121.552162,69.273338 121.518944,69.035042 121.446526,68.444656 
	C120.879890,66.340942 120.233185,64.656181 118.494370,63.204735 
	C114.163658,61.662868 109.848984,63.346386 105.529419,61.579948 
	C103.387299,59.747761 104.177681,58.122871 105.102974,56.484375 
	C106.066704,54.777794 107.647278,53.459003 108.298592,51.145947 
	C110.232803,44.999969 105.236031,43.093987 102.201134,40.238148 
	C100.439774,38.580704 97.959297,37.665337 97.736160,34.550385 
	C99.999367,32.318909 102.591438,32.001831 105.688370,31.965523 
	C106.327797,31.539934 106.612320,31.174185 107.299881,30.770111 
	C109.855927,30.984205 110.474083,33.169971 111.924194,34.387005 
	C113.266396,35.513477 114.292229,37.275108 116.686707,35.747459 
	C117.909706,35.137169 118.738228,34.500782 119.880600,33.783829 
	C120.653130,33.709946 121.087067,33.787186 121.836365,34.014038 
	C127.037369,31.438042 132.142303,31.635418 137.742584,32.953377 
z"/>
<path fill="#ffff" opacity="1.000000" stroke="none" 
	d="
M105.601303,59.751373 
	C110.469330,60.563190 115.281601,58.642288 119.783157,61.855442 
	C120.845169,63.420563 120.443413,64.165733 119.394348,65.344139 
	C113.659317,71.786331 107.180313,77.321220 100.091545,82.195450 
	C98.956749,82.975723 97.953964,83.562035 96.364738,82.421860 
	C92.068703,81.183434 87.950737,79.510681 84.196014,83.524384 
	C81.491692,85.434151 79.971573,84.058609 78.811264,81.624619 
	C78.952133,81.218224 78.958603,80.728119 78.966980,80.483192 
	C78.874260,79.710793 78.844429,79.179207 79.074043,78.281929 
	C83.288124,72.630219 90.238083,71.344070 94.740974,66.542519 
	C96.391022,64.783035 97.873543,62.619408 100.039436,61.360882 
	C101.630180,60.436554 102.899033,58.358196 105.601303,59.751373 
z"/>
<path fill="00" opacity="1.000000" stroke="none" 
	d="
M61.172150,86.969879 
	C54.970535,89.301437 48.903229,89.323853 42.365650,88.313004 
	C41.350460,88.073853 40.734512,87.974922 39.805489,87.852463 
	C39.497883,87.798737 39.590786,87.742676 39.619164,87.788910 
	C39.129040,87.771751 38.739933,87.507545 38.243523,86.765808 
	C37.599068,86.174828 37.182022,85.876419 36.458160,85.322853 
	C31.004797,79.618629 32.668472,73.468430 34.495052,67.396477 
	C35.321953,64.647682 36.923012,63.974648 39.262901,66.302628 
	C41.286976,68.316391 43.184910,70.472427 45.808388,72.540833 
	C46.186993,72.820480 46.155987,72.876724 46.132206,72.855148 
	C50.788227,76.584740 55.293678,80.555603 60.219753,83.996933 
	C61.123589,84.628334 62.323853,85.191200 61.172150,86.969879 
z"/>
<path fill="#00" opacity="1.000000" stroke="none" 
	d="
M125.124023,70.856522 
	C125.572701,71.854118 125.719414,72.653503 125.975403,73.742142 
	C126.269844,80.878929 123.445793,85.706070 116.404915,88.026932 
	C110.786919,88.723122 105.514763,88.860008 100.267502,87.925400 
	C99.009079,87.701256 97.617889,87.562981 97.162231,85.920769 
	C96.670158,84.147339 98.462448,83.071930 99.084000,82.718140 
	C106.549644,78.468849 112.404320,72.337807 118.572060,66.570610 
	C120.532806,64.737206 122.306839,63.687843 123.849670,67.579498 
	C124.138687,67.966942 124.081543,67.995934 124.073822,67.964836 
	C124.741264,68.724525 124.280327,69.830528 125.124023,70.856522 
z"/>
<path fill="#00" opacity="1.000000" stroke="none" 
	d="
M124.158310,67.601257 
	C122.830833,66.949837 121.592804,65.685883 119.924240,67.499275 
	C113.658035,74.309387 106.369003,79.985672 98.610886,85.971489 
	C104.299728,89.074905 109.824249,87.718353 115.592957,88.084778 
	C108.066391,89.961731 100.262108,89.679794 92.677856,86.421600 
	C92.666031,83.940483 95.169304,84.111145 95.939568,82.325150 
	C105.430717,77.370766 112.523079,69.975418 119.880020,62.419506 
	C124.336731,61.470860 122.991684,65.379219 124.158310,67.601257 
z"/>
<path fill="#353433" opacity="1.000000" stroke="none" 
	d="
M38.967766,86.028893 
	C39.304340,86.570869 39.449371,86.918762 39.620972,87.550903 
	C35.042274,86.947708 32.706886,83.707794 30.995901,79.330940 
	C31.526819,74.480598 31.555151,69.848221 32.999424,65.423759 
	C34.072834,62.135426 35.534019,60.789413 38.395855,63.880440 
	C40.964836,66.655159 43.588409,69.379349 46.187447,72.473152 
	C43.337532,72.708214 42.055595,70.305946 40.291252,68.677193 
	C38.002003,66.563881 36.729046,66.336998 35.538239,69.815979 
	C33.699612,75.187607 33.624794,80.077408 37.764671,84.807343 
	C38.289982,85.294487 38.540024,85.558083 38.967766,86.028893 
z"/>
<path fill="#373232" opacity="1.000000" stroke="none" 
	d="
M78.591934,81.207367 
	C80.427895,82.048302 81.903656,82.878380 83.696655,83.766777 
	C85.052223,84.271797 86.109772,84.678963 87.125221,85.172714 
	C89.992111,86.566689 88.591164,87.326561 86.397438,88.027496 
	C84.401138,88.803986 81.407166,86.833702 81.061821,90.782478 
	C79.376816,92.911064 77.544189,93.131599 75.437202,91.787132 
	C72.863411,90.144798 70.226326,88.601662 67.207016,86.766693 
	C70.917625,84.308777 74.507874,82.627670 78.591934,81.207367 
z"/>
<path fill="#020202" opacity="1.000000" stroke="none" 
	d="
M81.389793,91.022461 
	C80.737373,91.058929 80.414085,90.979904 80.087387,90.961617 
	C78.094620,90.850105 76.076485,90.740639 74.907852,88.770622 
	C74.372208,87.867653 74.976242,87.142967 75.717873,86.750679 
	C77.734459,85.684036 79.747658,84.337669 82.179169,85.621941 
	C83.339966,86.235046 84.473671,86.899437 85.865463,87.802017 
	C85.169640,89.820930 83.228546,90.049088 81.389793,91.022461 
z"/>
<path fill="#353433" opacity="1.000000" stroke="none" 
	d="
M61.262367,87.169769 
	C59.550121,83.319595 55.503563,82.143135 52.766308,79.639153 
	C50.570850,77.630798 48.305855,75.709938 46.217163,73.154892 
	C51.594608,74.253624 54.367558,79.653069 59.643887,81.978745 
	C60.517326,83.420677 61.969418,83.662163 62.857967,84.532402 
	C64.786964,86.421646 63.329487,86.856659 61.262367,87.169769 
z"/>
<path fill="#3F3937" opacity="1.000000" stroke="none" 
	d="
M80.017540,78.806915 
	C79.869469,79.600014 79.672226,79.836418 79.176727,80.115128 
	C77.584793,79.852180 76.194221,79.466095 74.443420,79.022980 
	C73.052643,77.871849 72.022102,76.777763 70.971809,75.350342 
	C74.283699,72.328560 77.530006,73.509094 80.017540,78.806915 
z"/>
<path fill="#393939" opacity="1.000000" stroke="none" 
	d="
M39.703522,88.032654 
	C40.196991,87.305107 40.876812,87.357300 41.747314,88.055267 
	C41.283703,89.092468 40.599339,88.899933 39.703522,88.032654 
z"/>
<path fill="#010101" opacity="1.000000" stroke="none" 
	d="
M60.147213,24.599106 
	C53.083328,28.842457 46.995144,33.894314 40.520130,38.927589 
	C34.686680,36.952770 36.548759,31.964640 36.744282,28.429136 
	C36.999653,23.811363 39.380375,19.596910 44.773239,18.577658 
	C51.681107,17.272066 58.614243,15.926151 65.174591,20.472672 
	C64.004494,22.750336 62.063137,23.385763 60.147213,24.599106 
z"/>
<path fill="#373434" opacity="1.000000" stroke="none" 
	d="
M45.001225,53.312904 
	C43.437912,50.976528 42.930851,49.420258 45.174587,47.157806 
	C52.288071,39.984985 59.847221,33.416325 68.579391,27.648916 
	C69.463295,27.178629 70.199234,27.089119 70.652420,26.683617 
	C75.338593,22.490486 80.129784,22.425682 85.371262,26.393559 
	C85.672203,27.081575 85.620499,27.557142 85.366272,28.347855 
	C83.819908,31.104069 81.480141,29.412302 79.323318,29.988876 
	C78.593712,30.132359 78.184380,30.231913 77.485046,30.446201 
	C76.997963,30.622763 76.803864,30.696880 76.319595,30.888443 
	C75.633911,31.170595 75.239517,31.337954 74.539246,31.641392 
	C66.382027,35.266308 60.786720,41.713760 54.334259,47.027145 
	C51.481819,49.376030 51.055866,52.270866 53.342937,55.394173 
	C54.085087,56.407677 55.370327,57.298367 54.345642,59.187588 
	C53.548054,60.101772 52.787346,60.055466 51.664711,59.929218 
	C49.255424,57.750671 47.215305,55.680244 45.001225,53.312904 
z"/>
<path fill="#373434" opacity="1.000000" stroke="none" 
	d="
M65.475510,20.962431 
	C59.072575,17.628838 52.390434,18.389206 46.239605,19.727482 
	C38.149277,21.487745 36.074062,28.703184 40.012520,38.642178 
	C38.620018,41.577213 37.296787,40.502907 36.330528,38.580650 
	C34.638206,35.213963 34.988274,31.514898 34.866043,27.455372 
	C38.440044,17.777328 43.301376,15.091310 54.892536,15.736002 
	C58.741058,15.950054 62.480423,16.636084 66.099747,17.875801 
	C70.043381,19.226603 67.428040,20.071264 65.475510,20.962431 
z"/>
<path fill="#373534" opacity="1.000000" stroke="none" 
	d="
M93.329712,22.109795 
	C91.165291,21.684614 89.585167,20.951412 88.308121,19.492229 
	C98.400223,13.750551 112.783745,14.430602 119.659241,21.119625 
	C119.848831,21.692310 119.850388,21.964230 119.663986,22.597244 
	C118.194489,24.006321 116.873642,24.044489 115.341194,23.407095 
	C109.097221,20.810030 102.582458,21.333570 95.685593,21.956322 
	C94.775124,22.124670 94.251167,22.151318 93.329712,22.109795 
z"/>
<path fill="#373433" opacity="1.000000" stroke="none" 
	d="
M83.921371,28.175514 
	C84.373444,27.514389 84.742607,27.251129 85.391602,26.793888 
	C89.520554,29.087143 93.369675,31.574379 97.560265,34.152882 
	C102.424248,38.481037 106.995430,42.667873 111.438255,46.986748 
	C112.694618,48.208065 115.006401,49.454056 112.405930,51.905571 
	C109.387222,51.849396 107.852692,49.755157 106.051277,48.095825 
	C101.112900,43.546944 96.637024,38.520294 91.033615,34.648815 
	C89.618736,33.671257 88.015106,33.442066 86.651794,32.433517 
	C85.202240,31.361168 83.392975,30.908142 83.921371,28.175514 
z"/>
<path fill="#3C3130" opacity="1.000000" stroke="none" 
	d="
M77.332260,21.531822 
	C75.593040,20.650116 74.184242,19.880833 72.509712,18.966442 
	C76.468834,15.839855 80.030060,14.884721 84.007500,18.652088 
	C82.253464,20.511330 79.909454,20.986000 77.332260,21.531822 
z"/>
<path fill="#353433" opacity="1.000000" stroke="none" 
	d="
M93.117493,22.401691 
	C93.149162,21.865458 93.364883,21.618443 93.748268,21.191338 
	C101.185028,21.321819 106.865753,24.328863 110.336937,31.179005 
	C109.809898,32.008224 109.337280,32.246597 108.360962,32.151451 
	C107.550476,32.021076 107.136406,32.012344 106.412750,31.978479 
	C102.641884,27.750187 97.535072,25.821226 93.117493,22.401691 
z"/>
<path fill="#4A4A4A" opacity="1.000000" stroke="none" 
	d="
M122.111267,33.666031 
	C122.055008,34.293789 121.928970,34.486748 121.642105,34.765686 
	C117.830666,33.950325 118.936867,31.245831 119.594711,28.438816 
	C120.285324,27.905382 120.619690,27.776531 121.426498,27.904003 
	C121.952095,29.854309 122.005257,31.548290 122.111267,33.666031 
z"/>
<path fill="#373534" opacity="1.000000" stroke="none" 
	d="
M119.628815,21.569645 
	C120.246765,22.045004 120.646263,22.669617 120.824387,23.920179 
	C119.082008,24.894930 118.327637,24.331041 118.710114,22.377335 
	C119.121620,21.921579 119.265984,21.820238 119.628815,21.569645 
z"/>
<path fill="#373534" opacity="1.000000" stroke="none" 
	d="
M121.944191,27.780739 
	C121.898941,28.160328 121.570610,28.120338 121.406670,28.098610 
	C119.593033,27.737997 119.350761,26.665823 120.084213,24.898972 
	C120.526123,24.433359 120.653320,24.318033 120.971329,24.029751 
	C122.203125,24.859636 121.928169,26.169634 121.944191,27.780739 
z"/>
<path fill="#050504" opacity="1.000000" stroke="none" 
	d="
M83.701599,27.660990 
	C92.466202,33.393074 101.070129,38.833851 107.987900,46.423561 
	C109.410240,47.984055 111.220306,49.268093 112.036064,51.736015 
	C110.498825,54.770901 107.373108,56.264610 106.094131,59.675362 
	C97.816246,66.727089 89.901863,73.763084 80.308884,79.150635 
	C77.209198,77.863472 74.448586,76.444176 71.320023,75.020943 
	C70.952057,75.017006 71.006111,75.000237 71.000298,75.028061 
	C70.411789,74.061134 69.192444,74.086876 68.160507,73.229813 
	C67.925011,73.024895 67.983551,73.007156 67.981628,73.037674 
	C67.483887,72.519028 67.523346,71.757133 67.046684,70.824127 
	C66.503189,70.547867 66.124405,70.582382 65.612320,70.471588 
	C63.346008,69.965759 62.246925,68.074005 60.336273,66.796387 
	C59.573784,66.158386 59.083462,65.708344 58.219879,65.207016 
	C57.947441,65.018936 58.000610,64.996353 57.997536,65.025070 
	C57.765202,64.783012 57.476723,64.627861 56.867111,64.559570 
	C56.614216,64.513199 56.408554,64.272202 56.368591,64.203568 
	C54.835789,62.971306 54.377823,61.020012 52.928040,59.419422 
	C45.924278,49.838833 46.278687,50.266739 55.328651,42.771240 
	C61.180458,37.924572 67.290611,33.543083 73.771591,29.017296 
	C74.255875,28.704422 74.431931,28.561201 74.883270,28.217701 
	C75.158554,28.017424 75.613731,27.957607 75.840118,27.919701 
	C76.296219,27.656303 76.543495,27.452085 77.013550,27.143255 
	C79.339035,26.486736 81.445511,26.117903 83.701599,27.660990 
z"/>
<path fill="#363232" opacity="1.000000" stroke="none" 
	d="
M30.129597,53.273651 
	C29.993336,48.729958 33.346180,46.318108 36.228756,44.771889 
	C39.874268,42.816437 39.583477,47.377777 40.862656,49.593117 
	C38.422260,50.564804 36.792072,52.012268 36.158623,54.789333 
	C36.359276,55.579189 36.479454,56.027939 36.781040,56.763660 
	C35.923717,59.134064 34.589199,59.324203 33.435863,57.269928 
	C32.611000,55.800709 31.762711,54.460205 30.129597,53.273651 
z"/>
<path fill="#020202" opacity="1.000000" stroke="none" 
	d="
M36.327003,56.327415 
	C34.266144,54.837170 33.559448,53.219379 35.247829,51.337856 
	C36.588215,49.844135 37.836338,47.720577 40.593731,49.814529 
	C40.563572,50.744400 40.286388,51.538799 39.962479,52.652191 
	C39.032303,53.784706 38.148853,54.598217 37.124130,55.685356 
	C36.858463,56.117954 36.734074,56.276928 36.327003,56.327415 
z"/>
<path fill="#3A3331" opacity="1.000000" stroke="none" 
	d="
M52.657734,59.165367 
	C54.523754,60.090839 55.824440,61.403702 56.306076,63.760468 
	C54.179958,63.614277 52.782379,62.103123 51.389740,60.141163 
	C51.684650,59.633427 52.073761,59.445751 52.657734,59.165367 
z"/>
<path fill="#393635" opacity="1.000000" stroke="none" 
	d="
M59.755287,66.348373 
	C62.076389,66.741409 63.714069,68.022507 65.240814,70.051102 
	C62.840488,71.312721 61.893444,68.824593 60.076637,67.510895 
	C59.779789,67.038315 59.650909,66.832901 59.755287,66.348373 
z"/>
<path fill="#3F3937" opacity="1.000000" stroke="none" 
	d="
M67.972702,73.379158 
	C69.058075,73.130272 70.251427,73.107704 70.911522,74.724426 
	C69.846413,74.967484 68.528511,75.261024 67.972702,73.379158 
z"/>
<path fill="#373434" opacity="1.000000" stroke="none" 
	d="
M59.772697,65.868057 
	C59.975304,66.265007 59.962063,66.460747 59.928745,66.950119 
	C59.294403,66.706467 58.680134,66.169197 58.006653,65.325424 
	C58.483913,65.234909 59.020382,65.450874 59.772697,65.868057 
z"/>
<path fill="#3F3937" opacity="1.000000" stroke="none" 
	d="
M66.662918,70.880463 
	C67.217636,71.130005 67.553299,71.746658 67.934334,72.715759 
	C67.104675,72.767609 66.518257,72.223564 66.662918,70.880463 
z"/>
<path fill="#B31D07" opacity="1.000000" stroke="none" 
	d="
M36.154530,56.403141 
	C36.044319,56.218929 36.505035,56.058006 36.743942,56.008492 
	C36.984226,56.140072 36.985600,56.321163 36.984131,56.773949 
	C36.698513,56.961548 36.459663,56.808788 36.154530,56.403141 
z"/>
<path fill="#373434" opacity="1.000000" stroke="none" 
	d="
M56.937153,64.704834 
	C57.015694,64.558784 57.417171,64.604370 57.906555,64.851875 
	C57.749672,65.001350 57.504883,64.948906 56.937153,64.704834 
z"/>
<path fill="#030303" opacity="1.000000" stroke="none" 
	d="
M120.197479,24.332624 
	C120.632652,25.485437 120.866364,26.422190 121.171402,27.717911 
	C120.818016,30.068483 120.987289,32.048100 121.430450,34.443130 
	C121.038101,36.048771 120.578018,37.234837 119.986290,38.780060 
	C114.801079,38.754921 112.171165,35.029831 109.264473,31.144306 
	C104.291641,27.590916 99.428093,24.428848 94.239014,21.137939 
	C102.144691,17.909126 110.277649,17.711246 118.620781,21.928272 
	C119.316841,22.720800 119.656433,23.418684 120.197479,24.332624 
z"/>
<path fill="#3B3332" opacity="1.000000" stroke="none" 
	d="
M123.714371,55.519341 
	C123.469254,57.119217 122.775856,58.655029 121.247612,57.857292 
	C118.208374,56.270821 116.752876,53.022545 115.465370,50.171772 
	C114.695999,48.468220 117.186150,46.510574 118.330170,44.739922 
	C118.682167,44.195122 119.470161,43.657639 120.007797,44.172295 
	C122.654976,46.706322 126.985878,48.000565 126.367119,53.004494 
	C124.688782,53.122143 122.765900,52.485382 123.714371,55.519341 
z"/>
<path fill="#020202" opacity="1.000000" stroke="none" 
	d="
M124.043182,55.567020 
	C122.349884,55.785286 121.601494,54.806736 120.837105,53.627892 
	C119.922600,52.217545 118.568230,50.864670 120.226120,49.304817 
	C122.212715,47.435696 122.972679,49.985088 124.177391,50.725082 
	C124.846436,51.136032 125.277306,51.934734 125.976395,52.862633 
	C125.495728,53.887756 124.854195,54.608932 124.043182,55.567020 
z"/>
<path fill="#383434" opacity="1.000000" stroke="none" 
	d="
M108.958557,30.967554 
	C112.502342,33.486649 115.849495,36.220306 119.525650,39.046593 
	C118.609154,40.575512 117.443970,40.812477 115.832184,39.426147 
	C113.263596,37.216846 110.310829,35.444546 108.152206,32.305664 
	C108.230331,31.747246 108.496124,31.464684 108.958557,30.967554 
z"/>
<path fill="#383231" opacity="1.000000" stroke="none" 
	d="
M125.320129,70.717224 
	C124.490234,70.526115 124.167572,69.659912 124.084442,68.292732 
	C125.054314,68.464851 124.957458,69.505295 125.320129,70.717224 
z"/>
<path fill="#393939" opacity="1.000000" stroke="none" 
	d="
M39.050625,85.952980 
	C38.904572,85.962318 38.649837,85.701645 38.210602,85.242500 
	C38.331379,85.257011 38.636662,85.469994 39.050625,85.952980 
z"/>
<path fill="#393635" opacity="1.000000" stroke="none" 
	d="
M74.974945,28.151482 
	C74.997841,28.292614 74.786369,28.520737 74.301987,28.774715 
	C74.311516,28.653332 74.548691,28.465965 74.974945,28.151482 
z"/>
<path fill="#393635" opacity="1.000000" stroke="none" 
	d="
M77.023613,27.158066 
	C77.032043,27.293037 76.802254,27.526262 76.297943,27.799417 
	C76.316101,27.681713 76.570084,27.487370 77.023613,27.158066 
z"/>
<path fill="#C7220B" opacity="1.000000" stroke="none" 
	d="
M65.448135,61.753284 
	C65.391602,61.174652 65.252884,61.056442 64.913452,61.045761 
	C62.889690,60.890472 63.790028,59.250439 63.133148,57.920723 
	C61.156727,51.153645 61.010105,45.068352 66.252106,39.624802 
	C66.691666,39.426392 66.919418,39.499626 67.470383,39.727421 
	C68.159233,40.200939 68.397278,40.593750 68.489761,41.425034 
	C68.521400,42.700134 68.501701,43.621407 68.267715,44.866600 
	C68.185066,45.647732 68.153305,46.093826 68.134262,46.872459 
	C68.135216,47.874271 68.283142,48.521870 68.466965,49.503197 
	C68.596306,50.819992 68.715714,51.806488 69.859276,52.155754 
	C76.153763,54.078201 82.448685,54.084312 88.697075,51.997467 
	C89.142853,51.848583 89.687119,51.171597 89.760010,50.125061 
	C89.808998,48.933292 90.592270,48.311153 90.576508,47.120796 
	C90.552834,46.164700 90.495888,45.526375 90.315201,44.565231 
	C90.046989,43.578312 89.520599,43.043259 89.469810,41.942085 
	C89.275520,41.061680 89.324677,40.566883 89.787926,39.762547 
	C90.248055,39.287720 90.475479,39.138824 91.113991,38.944393 
	C92.095917,38.984531 92.614105,39.199051 93.319794,39.902626 
	C102.635162,52.231339 94.790886,66.336548 82.794487,68.993393 
	C79.702507,69.678177 76.974808,69.115417 73.727188,68.008499 
	C73.376053,67.843666 73.504677,67.653870 73.633301,67.464073 
	C73.507164,67.407097 73.381027,67.350113 73.059830,67.357880 
	C69.510223,66.894524 67.459679,64.531120 65.448135,61.753284 
z"/>
<path fill="#353434" opacity="1.000000" stroke="none" 
	d="
M73.532387,68.403275 
	C73.534744,66.930046 74.440567,66.980438 75.210823,67.149002 
	C82.872658,68.825623 88.979752,66.280365 93.261139,59.930275 
	C97.505013,53.635803 96.831924,47.121490 92.806816,40.463211 
	C92.873360,39.943867 93.086937,39.766392 93.668625,39.783875 
	C101.746872,46.951672 99.678146,61.161968 91.413773,66.625633 
	C90.887497,67.060097 90.634926,67.320778 90.202545,67.786514 
	C90.010201,67.979393 89.596428,68.000648 89.389404,68.007881 
	C88.918098,68.181862 88.664696,68.363747 88.245697,68.714523 
	C86.660271,69.231438 85.251312,69.594604 83.477142,69.994308 
	C82.652229,70.391396 82.104218,70.495712 81.309021,70.720558 
	C80.884079,70.873917 80.696136,70.877228 80.226349,70.873016 
	C79.489700,70.547089 78.976852,70.342720 78.199188,70.116608 
	C76.502800,69.827629 74.935081,69.988434 73.532387,68.403275 
z"/>
<path fill="#C7220B" opacity="1.000000" stroke="none" 
	d="
M67.453873,38.849430 
	C72.766205,33.599949 78.931419,32.658310 86.097595,34.907524 
	C87.130936,35.228088 87.776215,35.504765 88.729408,35.848701 
	C88.979492,36.094776 88.968994,36.030167 88.938057,36.040852 
	C89.200233,36.212059 89.454880,36.419746 89.831131,36.863369 
	C89.991203,37.052143 89.998894,36.997456 89.975098,37.011452 
	C90.648308,37.515507 91.491608,37.857864 91.657051,39.111717 
	C91.435379,39.557247 91.298645,39.689968 90.956787,40.021755 
	C89.465141,40.998737 87.999878,39.948452 86.297546,40.507221 
	C82.595207,36.801540 77.468719,36.262028 72.203957,39.247627 
	C71.062134,40.576073 69.812073,39.882858 68.446815,40.057983 
	C67.899261,39.664734 67.720642,39.457489 67.453873,38.849430 
z"/>
<path fill="#373535" opacity="1.000000" stroke="none" 
	d="
M65.414459,61.755852 
	C67.869675,63.165394 70.272232,64.963753 72.769783,67.092377 
	C68.898941,67.745682 66.227898,66.228111 65.414459,61.755852 
z"/>
<path fill="#3F3534" opacity="1.000000" stroke="none" 
	d="
M91.745590,39.555096 
	C91.073524,38.817871 90.574928,38.211216 90.013809,37.315002 
	C90.768166,37.279133 91.585030,37.532822 92.703781,37.916054 
	C93.170570,38.197231 93.335472,38.348862 93.726944,38.748650 
	C93.953514,38.996807 93.978951,39.489407 94.007835,39.734119 
	C93.807358,40.002888 93.578003,40.026939 93.004211,40.086166 
	C92.374107,40.042023 92.127205,39.896797 91.745590,39.555096 
z"/>
<path fill="#373535" opacity="1.000000" stroke="none" 
	d="
M62.979412,57.951599 
	C63.533760,58.430019 64.137756,59.334133 64.758850,60.658684 
	C63.498707,60.627831 63.137444,59.584312 62.979412,57.951599 
z"/>
<path fill="#373535" opacity="1.000000" stroke="none" 
	d="
M78.119492,70.319839 
	C78.506012,70.276192 79.088333,70.436523 79.807579,70.731178 
	C79.401436,70.751610 78.858368,70.637718 78.119492,70.319839 
z"/>
<path fill="#373535" opacity="1.000000" stroke="none" 
	d="
M81.361267,70.866180 
	C81.577003,70.649117 82.081993,70.427628 82.849457,70.118484 
	C82.624794,70.307808 82.137665,70.584778 81.361267,70.866180 
z"/>
<path fill="#3F3534" opacity="1.000000" stroke="none" 
	d="
M88.748566,35.825798 
	C88.302330,35.903698 87.625168,35.712624 86.715881,35.239418 
	C87.161713,35.157131 87.839668,35.356976 88.748566,35.825798 
z"/>
<path fill="#373535" opacity="1.000000" stroke="none" 
	d="
M88.296387,68.789764 
	C88.308998,68.669762 88.553673,68.477493 88.992821,68.153290 
	C89.011688,68.293472 88.792076,68.525520 88.296387,68.789764 
z"/>
<path fill="#373535" opacity="1.000000" stroke="none" 
	d="
M90.278168,67.877930 
	C90.263863,67.722084 90.517517,67.464767 90.961899,67.009514 
	C90.950462,67.133202 90.748291,67.454834 90.278168,67.877930 
z"/>
<path fill="#C7220B" opacity="1.000000" stroke="none" 
	d="
M66.629585,39.546272 
	C66.627693,39.117775 66.816223,38.904251 67.197617,38.580605 
	C67.365723,38.448612 67.729446,38.768890 67.908768,38.931870 
	C68.252266,39.539848 68.135551,39.905418 67.454018,40.161018 
	C67.020432,39.993118 66.907837,39.866249 66.629585,39.546272 
z"/>
<path fill="#353434" opacity="1.000000" stroke="none" 
	d="
M93.889961,38.759521 
	C93.737289,38.791023 93.524803,38.581451 93.160858,38.206848 
	C93.364304,38.058033 93.637878,38.216911 93.889961,38.759521 
z"/>
<path fill="#3F3534" opacity="1.000000" stroke="none" 
	d="
M89.890671,36.812805 
	C89.669579,36.898842 89.347954,36.745537 88.966721,36.321884 
	C89.201462,36.225513 89.495796,36.399490 89.890671,36.812805 
z"/>
<path fill="#D95948" opacity="1.000000" stroke="none" 
	d="
M91.899872,49.695824 
	C91.206451,53.309223 88.912735,55.136536 85.799164,55.559544 
	C81.404549,56.156586 76.943100,56.137177 72.542374,55.527672 
	C69.604141,55.120731 67.406067,53.462040 66.169060,50.285965 
	C69.195305,47.589314 72.773193,48.752838 76.143723,48.673508 
	C81.292618,48.552326 86.476509,47.983631 91.899872,49.695824 
z"/>
<path fill="#DF7667" opacity="1.000000" stroke="none" 
	d="
M92.388351,49.880920 
	C83.818291,50.100315 75.420143,50.032806 66.560165,49.955460 
	C65.882133,49.256893 65.665909,48.568165 65.445251,47.517799 
	C66.313492,46.691872 67.024071,45.714378 68.007332,45.710785 
	C76.064407,45.681316 84.147560,44.701225 92.529266,46.621658 
	C92.781006,47.847580 92.670631,48.720795 92.388351,49.880920 
z"/>
<path fill="#E6968B" opacity="1.000000" stroke="none" 
	d="
M90.625885,41.597118 
	C91.447411,42.368420 91.803360,42.759151 92.216591,43.423252 
	C92.506226,45.996395 90.827469,45.963425 89.364571,45.940205 
	C81.818085,45.820404 74.258888,46.492321 66.300690,45.312012 
	C66.085075,44.159031 66.293594,43.291294 66.764580,42.206848 
	C71.944702,38.853962 77.408005,41.026321 82.589508,40.592445 
	C84.967590,40.393318 87.736374,39.960564 90.625885,41.597118 
z"/>
<path fill="#EDB3AB" opacity="1.000000" stroke="none" 
	d="
M91.020485,41.687698 
	C83.381210,41.985046 75.670952,41.992401 67.493866,41.994942 
	C67.044594,41.574169 67.062157,41.158207 67.106369,40.431114 
	C67.481018,40.054146 67.743309,39.867725 68.003998,39.327782 
	C68.832817,38.734089 69.577538,38.373333 70.636215,37.961105 
	C76.283813,37.929169 81.649185,37.036705 87.435425,38.398056 
	C88.700348,38.884384 89.463699,39.438015 90.489365,40.106232 
	C90.817619,40.613121 90.883568,41.005413 91.020485,41.687698 
z"/>
<path fill="#E38679" opacity="1.000000" stroke="none" 
	d="
M65.717773,45.360306 
	C74.408272,44.533958 83.013527,46.029408 91.882614,43.888008 
	C92.508163,44.560955 92.742447,45.425285 92.934059,46.631989 
	C84.085663,47.020252 75.279938,47.066143 65.957520,47.134098 
	C65.480217,46.668724 65.519608,46.181286 65.717773,45.360306 
z"/>
<path fill="#F0C3BD" opacity="1.000000" stroke="none" 
	d="
M87.568138,38.187859 
	C82.523300,39.309223 77.114075,39.490650 71.331520,38.074715 
	C76.394997,34.536865 81.807648,35.029316 87.568138,38.187859 
z"/>
</svg>